<svg width="873" height="724" viewBox="0 0 873 724" fill="none" xmlns="http://www.w3.org/2000/svg">
<path d="M4.08 723.4C-1.02 718.32 1.45 682.63 2.25 676.9C5.45 653.94 8.65 630.97 11.85 608.01C18.34 561.43 24.83 514.86 31.31 468.28C32.05 462.96 32.79 457.63 33.54 452.31C35.08 443.45 43.87 436.71 53.06 437.33C62.26 437.94 68.52 445.69 66.98 454.55C47.63 542.26 24.12 630.13 9.8 718.3C9.61 719.49 9.39 720.73 8.58 721.76C6.65 724.16 5.19 724.5 4.08 723.4Z" fill="#E3E5FC"/>
<path d="M219.19 722.47C224.17 717.24 220.89 681.63 219.96 675.93C216.24 653.07 212.52 630.21 208.8 607.35C201.26 560.99 193.71 514.62 186.17 468.26C185.31 462.96 184.45 457.66 183.58 452.36C181.84 443.55 172.9 437.08 163.72 437.98C154.54 438.87 148.46 446.81 150.2 455.61C171.54 542.7 197.03 629.83 213.35 717.53C213.57 718.71 213.82 719.95 214.65 720.95C216.64 723.31 218.11 723.61 219.19 722.47Z" fill="#E3E5FC"/>
<path d="M190.95 478.67H29.1C14.17 478.67 1.95001 466.45 1.95001 451.52C1.95001 436.59 14.17 424.37 29.1 424.37H190.95C205.88 424.37 218.1 436.59 218.1 451.52C218.11 466.46 205.89 478.67 190.95 478.67Z" fill="#A7ADFF"/>
<path d="M583.85 287.61L641.36 158C642.27 155.95 644.69 155.02 646.74 155.93L647.74 156.37C649.79 157.28 650.72 159.7 649.81 161.75L592.29 291.36C591.38 293.41 588.96 294.34 586.91 293.43L585.91 292.99C583.87 292.08 582.94 289.66 583.85 287.61Z" fill="#4B369D"/>
<path d="M639.42 154.2L594.56 19.69C593.85 17.56 595.01 15.24 597.14 14.53L598.18 14.18C600.31 13.47 602.63 14.63 603.34 16.76L648.2 151.27C648.91 153.4 647.75 155.72 645.62 156.43L644.58 156.78C642.45 157.48 640.13 156.32 639.42 154.2Z" fill="#4B369D"/>
<path d="M645.88 170.29C652.154 170.29 657.24 165.204 657.24 158.93C657.24 152.656 652.154 147.57 645.88 147.57C639.606 147.57 634.52 152.656 634.52 158.93C634.52 165.204 639.606 170.29 645.88 170.29Z" fill="#A7ADFF"/>
<path d="M583.4 279.67C562.42 279.67 545.42 295.55 545.42 315.15H621.38C621.38 295.55 604.37 279.67 583.4 279.67Z" fill="#E3E5FC"/>
<path d="M605.94 4.27006C594.6 -7.06994 558.24 10.9001 524.73 44.4101L565.8 85.4801C599.31 51.9701 617.28 15.6101 605.94 4.27006Z" fill="#F3AA02"/>
<path d="M521.35 92.73C520.86 92.73 520.36 92.54 520 92.15C519.28 91.4 519.31 90.22 520.06 89.5L537.47 72.86C538.22 72.14 539.41 72.17 540.12 72.92C540.84 73.67 540.81 74.85 540.06 75.57L522.65 92.21C522.29 92.56 521.82 92.73 521.35 92.73Z" fill="#E3E5FC"/>
<path d="M541 110.1C540.69 110.1 540.37 110.02 540.08 109.86C539.18 109.35 538.86 108.21 539.37 107.31L551.16 86.31C551.66 85.41 552.8 85.09 553.71 85.59C554.61 86.1 554.93 87.24 554.42 88.14L542.63 109.14C542.29 109.76 541.65 110.1 541 110.1Z" fill="#E3E5FC"/>
<path d="M502.19 73.34C501.44 73.34 500.73 72.89 500.44 72.15C500.06 71.19 500.54 70.1 501.5 69.72L523.95 60.99C524.92 60.62 526 61.09 526.38 62.06C526.76 63.03 526.28 64.11 525.32 64.49L502.87 73.22C502.65 73.3 502.42 73.34 502.19 73.34Z" fill="#E3E5FC"/>
<path d="M782.5 521.87C782.48 521.87 719.25 521.87 719.25 521.87C720.06 527.26 720.85 532.73 721.68 538.2H778.92C779.69 529.11 780.82 521.87 782.5 521.87Z" fill="#4B369D"/>
<path d="M731.69 584.99C732.87 586.18 734.47 586.21 735.95 586.17C744.49 585.98 753.05 586.52 761.6 586.47C769.67 586.43 776.35 587.08 777.19 573.67C777.37 570.84 777.71 552.3 778.91 538.19H721.67C723.83 552.58 726.21 567.08 729.79 580.75C730.21 582.34 730.69 583.98 731.69 584.99Z" fill="#F3AA02"/>
<path d="M750.87 569.34C756.387 569.34 760.86 564.867 760.86 559.35C760.86 553.833 756.387 549.36 750.87 549.36C745.353 549.36 740.88 553.833 740.88 559.35C740.88 564.867 745.353 569.34 750.87 569.34Z" fill="white"/>
<path d="M741.99 514.28C741.99 514.28 721.01 500.2 735.95 491.3C750.89 482.4 748.66 470.09 741.99 468.09C735.32 466.1 755.94 457.94 755.94 457.94C755.94 457.94 741.99 462.67 750.15 468.09C758.3 473.51 779.06 486.85 763.49 491.3C747.93 495.75 779.21 503.11 769.12 511.29C759.04 519.47 741.99 514.28 741.99 514.28Z" fill="#E3E5FC"/>
<path d="M211.39 152.16L194.61 202.82L150.14 207.37C150.14 207.37 183.99 178.56 188.49 145.92C192.99 113.28 211.39 152.16 211.39 152.16Z" fill="#D4A79A"/>
<path d="M282.87 76.72C282.87 76.72 288.47 90.72 270.21 124C251.95 157.28 229.78 183.9 219.64 178.83C191.58 164.81 186.89 141.01 181.51 120.2C174.91 94.69 214.64 47.68 214.64 47.68L241.78 41.37L282.87 76.72Z" fill="#EAC2AB"/>
<path d="M317.6 76.0299C317.89 75.5299 318.17 75.0099 318.44 74.4799C323.98 63.5999 326.08 49.4099 323.73 37.4099C319.75 17.0699 299.32 14.9099 282.16 18.5899C274.32 20.2699 266.98 25.3999 258.68 22.7399C252.49 20.7599 249.36 14.9499 244.65 10.9999C239.25 6.46994 232.49 3.80994 225.44 3.06994C210.83 1.53994 197.39 9.09994 189.38 21.0499C186.09 25.9699 183.98 31.6299 183.66 37.5399C182.2 35.4899 180.12 34.8199 177.63 35.2999C157.24 39.2699 158.41 68.8699 159.31 84.3999C160.06 97.3699 159.33 113.5 167.23 124.61C170.38 129.04 178.64 136.09 183.66 131.17C188.14 126.78 184.64 113.33 185.84 107.57C187.52 99.4799 186.78 60.6999 228.04 63.6199C244.44 64.7799 256 92.8299 271.42 97.7099C287.11 102.68 308.86 91.0499 317.6 76.0299Z" fill="#4B369D"/>
<path d="M189.55 96.8499C189.55 96.8499 178.11 84.1499 179.52 103.68C180.94 123.2 191.2 127.14 191.2 127.14L189.55 96.8499Z" fill="#EAC2AB"/>
<path d="M406.5 569.42L432.97 634.84L413.33 646.5L389.53 576.5C389.53 576.5 399.39 568.49 406.5 569.42Z" fill="#EAC2AB"/>
<path d="M523.72 644.17C523.72 644.17 509.06 653.09 479.4 661.62C449.75 670.16 416.39 678.22 409.43 674.72C402.47 671.22 391.24 631.64 401.27 629.58C411.3 627.53 417.99 642.17 433.18 624.77C446.19 609.86 462.32 629.64 489.77 630.18C517.22 630.72 528.33 630.91 523.72 644.17Z" fill="#F3AA02"/>
<path d="M206.97 381.61C220.33 383.12 253.73 398.73 266.04 403.35C292.46 413.27 332.11 470.37 348.19 490.58C365.92 512.86 382.78 520.66 398.72 543.89C409.87 560 431.76 564.16 443.05 578.85C451.65 590.04 447.7 590.16 434.51 597.32C416.42 607.14 363 658.97 354.77 627.3C351.7 615.47 329.79 590.37 321.81 580.5C303.08 557.33 308.43 521.82 292.37 497.27C284.55 485.32 278.93 471.28 265.3 463.86C253.86 457.63 239.33 457.55 225.69 457.69C206.89 457.87 196.33 425.2 177.52 425.38C152.73 425.62 127.08 449.68 107.2 437.24C73.78 416.31 119.04 414.51 137.74 413.78C174.76 412.35 170.18 377.47 206.97 381.61Z" fill="#4B369D"/>
<path d="M331.78 611.28L363.33 674.36L343.33 687.08L314.32 619.31C314.32 619.31 324.24 610.79 331.78 611.28Z" fill="#EAC2AB"/>
<path d="M454.3 694.17C454.3 694.17 438.2 701.76 406.39 707.73C374.58 713.7 338.91 718.9 331.87 714.87C324.83 710.84 316.11 670.83 326.81 669.63C337.5 668.43 343.4 683.44 360.7 667.52C375.53 653.88 390.93 674.74 419.73 677.55C448.52 680.35 460.18 681.46 454.3 694.17Z" fill="#FDC510"/>
<path d="M177.52 374.99C190.88 376.9 203.21 382.46 215.52 388.33C241.94 400.93 264.03 435.4 280.11 461.06C297.84 489.37 314.7 518.31 330.64 547.81C336.69 559.01 339.17 571.55 344.79 582.83C354.09 601.49 402.16 627 370.87 648.11C350.79 661.65 319.05 655.13 296.41 655.05C295.23 655.05 293.96 655.01 293.04 654.28C291.95 653.41 291.72 651.87 291.57 650.48C288.43 621.01 285.43 596.36 272.08 569.67C253.35 540.24 240.35 519.78 224.29 488.61C216.47 473.43 217 460.95 203.38 451.53C191.94 443.61 180.14 445.98 166.51 446.15C147.71 446.38 131.57 445.92 112.77 446.15C87.98 446.45 71.79 445.65 58.39 424.07C32.72 382.72 50.98 383.47 69.67 382.55C106.68 380.71 140.73 369.72 177.52 374.99Z" fill="#5A54FF"/>
<path d="M207.61 232.1C207.61 232.1 223.29 292.04 229.35 293.37C234.43 294.48 240.64 293.39 245.76 293.16C256.27 292.68 266.78 292 277.27 291.29C295.44 290.05 314.15 289.61 332.15 286.66C343.15 284.86 363.32 282.17 371.65 274.1C382.96 263.16 403.12 288.3 408.83 294.99C409.66 295.96 410.45 297.5 409.51 298.35C409.08 298.74 408.45 298.78 407.87 298.75C403.79 298.58 400.19 296.18 396.83 293.88C399.88 297.33 402.41 301.24 404.3 305.44C400.58 304.02 397.36 301.53 393.69 300C378.92 293.86 366.95 315.35 350.4 307.7C339.3 302.57 326.78 306.08 315.24 307.36C304.85 308.51 294.45 309.58 284.04 310.59C264.58 312.49 244.23 315.79 224.63 315.03C223.43 314.98 222.07 315.12 220.9 314.73C214.74 312.65 203 286.25 194.28 263.23C188.78 248.71 181.65 233.09 186.76 210.36C191.46 189.52 213.35 198.93 207.61 232.1Z" fill="#EAC2AB"/>
<path d="M181.05 274.22C183.91 262.67 187.58 251.56 191.79 241.27C198.39 225.14 210.22 203.2 200.12 185.94C198.7 183.51 197.14 181.06 194.77 179.24C168.39 158.98 127.46 197.62 110.4 217.85C88.9 243.34 88.14 254.22 79.03 284.18C68.91 317.45 59.83 352.29 44.5 383.96C42.85 387.38 41.49 392.05 45.01 394.34C46.61 395.38 48.72 395.5 50.69 395.5C64.38 395.48 77.5 391.72 90.39 388.1C110.81 382.37 109.91 380.12 131.28 383.85C139.67 385.31 147.64 382.81 156.14 382.74C158.24 382.72 166.58 381.75 168.36 380.92C182.26 374.45 165.31 370.66 164.62 368.96C151.83 337.31 172.62 308.27 181.05 274.22Z" fill="#D7384E"/>
<path d="M213.5 251.81C213.5 251.81 216.01 179.28 183.5 184.61C150.99 189.94 164.46 271.69 164.46 271.69L217.57 262.24L213.5 251.81Z" fill="#F44E4E"/>
<path d="M278.67 723.23C273.78 716.37 277.91 665.85 278.98 657.71C283.26 625.11 287.54 592.5 291.82 559.9C300.5 493.77 309.18 427.64 317.86 361.51C318.85 353.95 319.84 346.39 320.84 338.83C322.8 326.24 331.95 316.19 341.18 316.5C350.41 316.81 356.35 327.36 354.39 339.95C330.86 464.91 303.15 590.36 284.66 715.67C284.41 717.36 284.13 719.13 283.27 720.63C281.23 724.15 279.74 724.72 278.67 723.23Z" fill="#E3E5FC"/>
<path d="M607.39 723.23C612.28 716.37 608.15 665.85 607.08 657.71C602.8 625.11 598.52 592.5 594.24 559.9C585.56 493.77 576.88 427.64 568.2 361.51C567.21 353.95 566.22 346.39 565.22 338.83C563.26 326.24 554.11 316.19 544.88 316.5C535.65 316.81 529.71 327.36 531.67 339.95C555.2 464.91 582.91 590.36 601.4 715.67C601.65 717.36 601.93 719.13 602.79 720.63C604.84 724.15 606.33 724.72 607.39 723.23Z" fill="#E3E5FC"/>
<path d="M750.16 335.86H206.11C200.41 335.86 195.75 331.2 195.75 325.5C195.75 319.8 200.41 315.14 206.11 315.14H750.16C755.86 315.14 760.52 319.8 760.52 325.5C760.52 331.2 755.86 335.86 750.16 335.86Z" fill="#A7ADFF"/>
<path d="M657.3 280.5C660.92 278.27 662.65 273.38 661.23 269.37C658.91 262.81 652.92 265.02 648.65 261.58C643.63 257.53 649.7 251.15 649.37 246.36C649 241.09 644.26 236.01 642.84 230.92C639.57 219.22 652.86 227.95 656.66 226.59C658.25 226.02 659.29 224.42 659.65 222.78C660.58 218.58 658.81 215.18 661.11 211.2C663.33 207.36 666.62 205.62 665.67 200.41C665.13 197.45 663.31 194.75 663.36 191.75C663.37 190.89 663.62 189.92 664.37 189.5C664.94 189.18 665.65 189.27 666.27 189.48C668.32 190.2 669.66 192.11 671.31 193.52C672.96 194.93 675.61 195.81 677.19 194.32C678.24 193.33 678.35 191.73 678.56 190.3C678.95 187.72 680.76 185.93 683 187.42C685.45 189.04 684.51 195.44 684.14 197.74C683.55 201.38 682.67 205.16 683.75 208.68C685.54 214.51 690.42 207.98 692.55 206.05C694.29 204.47 697.21 203.52 698.89 205.17C702.22 208.46 696.86 212.85 696.16 215.97C695.82 217.45 696.26 219.23 697.58 219.99C701.44 222.23 704.7 218.24 705.28 224.19C705.68 228.26 701.99 232.15 704.28 236.22C706.28 239.78 712.93 241.29 710.3 246.29C708.68 249.36 701.73 249.22 702.1 253.58C702.34 256.42 706.62 257.72 706.62 260.57C706.62 262.72 704.12 263.99 701.97 264.1C699.82 264.21 697.56 263.71 695.58 264.55C693.33 265.5 692.03 268.26 692.73 270.6C693.33 272.63 695.23 274.49 694.63 276.52C693.91 278.97 690.52 279.06 688 278.67C677.72 277.05 666.69 275.98 657.3 280.5Z" fill="#FDC510"/>
<path d="M676.75 280.7C675.71 280.7 674.88 279.86 674.88 278.83V232.88C674.88 231.85 675.72 231.01 676.75 231.01C677.78 231.01 678.62 231.85 678.62 232.88V278.83C678.62 279.86 677.79 280.7 676.75 280.7Z" fill="white"/>
<path d="M676.75 262.81C676.33 262.81 675.92 262.67 675.57 262.39C674.76 261.74 674.64 260.56 675.29 259.75L687.34 244.89C688 244.08 689.18 243.97 689.98 244.61C690.78 245.26 690.91 246.44 690.25 247.25L678.2 262.11C677.83 262.58 677.3 262.81 676.75 262.81Z" fill="white"/>
<path d="M676.75 250.27C676.32 250.27 675.89 250.13 675.54 249.83L661.18 237.74C660.39 237.07 660.29 235.89 660.95 235.1C661.62 234.31 662.8 234.21 663.59 234.87L677.95 246.96C678.74 247.63 678.84 248.81 678.18 249.6C677.81 250.04 677.28 250.27 676.75 250.27Z" fill="white"/>
<path d="M655.29 274.06C657.18 286.62 658.88 299.76 662.06 311.87C662.32 312.88 662.64 313.94 663.27 314.58C664.03 315.35 665.06 315.36 666.01 315.34C671.49 315.21 676.99 315.57 682.48 315.54C687.66 315.51 691.95 315.93 692.49 307.32C692.68 304.34 693.15 274.06 695.9 274.06C695.89 274.06 655.29 274.06 655.29 274.06Z" fill="#D7384E"/>
<path d="M692.19 281.57H659C654.87 281.57 651.49 278.19 651.49 274.06C651.49 269.93 654.87 266.55 659 266.55H692.19C696.32 266.55 699.7 269.93 699.7 274.06C699.7 278.19 696.32 281.57 692.19 281.57Z" fill="#F44E4E"/>
<path d="M458.76 314.01H290.99C288.75 314.01 286.91 312.18 286.91 309.93C286.91 307.69 288.74 305.85 290.99 305.85H458.76C461 305.85 462.84 307.68 462.84 309.93C462.83 312.18 461 314.01 458.76 314.01Z" fill="#4B369D"/>
<path d="M454.57 308.27L538.46 162.98C539.58 161.04 542.09 160.37 544.03 161.49C545.97 162.61 546.64 165.12 545.52 167.06L461.63 312.35C460.51 314.29 458 314.96 456.06 313.84C454.12 312.72 453.45 310.21 454.57 308.27Z" fill="#4B369D"/>
<path d="M831.36 627.3H662.74C653.29 627.3 645.57 619.57 645.57 610.13V603.66C645.57 594.21 653.3 586.49 662.74 586.49H831.36C840.81 586.49 848.53 594.22 848.53 603.66V610.13C848.53 619.58 840.8 627.3 831.36 627.3Z" fill="#A7ADFF"/>
<path d="M855.47 671.68H686.85C677.4 671.68 669.68 663.95 669.68 654.51V648.04C669.68 638.59 677.41 630.87 686.85 630.87H855.47C864.92 630.87 872.64 638.6 872.64 648.04V654.51C872.65 663.95 864.92 671.68 855.47 671.68Z" fill="#A7ADFF"/>
<path d="M831.36 716.49H662.74C653.29 716.49 645.57 708.76 645.57 699.32V692.85C645.57 683.4 653.3 675.68 662.74 675.68H831.36C840.81 675.68 848.53 683.41 848.53 692.85V699.32C848.53 708.76 840.8 716.49 831.36 716.49Z" fill="#A7ADFF"/>
<path d="M662.11 611.26C664.695 611.26 666.79 609.165 666.79 606.58C666.79 603.995 664.695 601.9 662.11 601.9C659.525 601.9 657.43 603.995 657.43 606.58C657.43 609.165 659.525 611.26 662.11 611.26Z" fill="white"/>
<path d="M830.73 611.26C833.315 611.26 835.41 609.165 835.41 606.58C835.41 603.995 833.315 601.9 830.73 601.9C828.145 601.9 826.05 603.995 826.05 606.58C826.05 609.165 828.145 611.26 830.73 611.26Z" fill="white"/>
<path d="M685.53 654.04C688.115 654.04 690.21 651.945 690.21 649.36C690.21 646.775 688.115 644.68 685.53 644.68C682.945 644.68 680.85 646.775 680.85 649.36C680.85 651.945 682.945 654.04 685.53 654.04Z" fill="white"/>
<path d="M854.15 654.04C856.735 654.04 858.83 651.945 858.83 649.36C858.83 646.775 856.735 644.68 854.15 644.68C851.565 644.68 849.47 646.775 849.47 649.36C849.47 651.945 851.565 654.04 854.15 654.04Z" fill="white"/>
<path d="M663.05 700.52C665.635 700.52 667.73 698.425 667.73 695.84C667.73 693.255 665.635 691.16 663.05 691.16C660.465 691.16 658.37 693.255 658.37 695.84C658.37 698.425 660.465 700.52 663.05 700.52Z" fill="white"/>
<path d="M831.67 700.52C834.255 700.52 836.35 698.425 836.35 695.84C836.35 693.255 834.255 691.16 831.67 691.16C829.085 691.16 826.99 693.255 826.99 695.84C826.99 698.425 829.085 700.52 831.67 700.52Z" fill="white"/>
</svg>
